<?xml version="1.0" encoding="utf-8"?>
<svg xmlns="http://www.w3.org/2000/svg" width="29" height="29" class="segno"><path class="qrline" stroke="#18181b" d="M2 2.5h7m1 0h1m1 0h1m1 0h1m2 0h1m2 0h7m-25 1h1m5 0h1m3 0h1m1 0h2m1 0h2m1 0h1m5 0h1m-25 1h1m1 0h3m1 0h1m1 0h2m1 0h2m2 0h1m2 0h1m1 0h3m1 0h1m-25 1h1m1 0h3m1 0h1m1 0h5m1 0h1m3 0h1m1 0h3m1 0h1m-25 1h1m1 0h3m1 0h1m2 0h2m2 0h1m1 0h1m2 0h1m1 0h3m1 0h1m-25 1h1m5 0h1m1 0h1m2 0h1m1 0h1m1 0h2m1 0h1m5 0h1m-25 1h7m1 0h1m1 0h1m1 0h1m1 0h1m1 0h1m1 0h7m-17 1h1m2 0h1m2 0h1m-14 1h1m1 0h1m1 0h4m1 0h1m4 0h5m1 0h2m1 0h1m-23 1h4m1 0h3m3 0h1m2 0h3m5 0h1m-25 1h1m1 0h2m2 0h4m1 0h1m1 0h2m8 0h2m-24 1h3m3 0h4m2 0h4m2 0h2m-21 1h3m1 0h5m2 0h1m2 0h6m1 0h1m1 0h2m-21 1h2m2 0h4m6 0h2m1 0h2m1 0h1m-25 1h1m2 0h4m3 0h1m2 0h1m2 0h1m1 0h3m1 0h1m1 0h1m-24 1h1m1 0h3m4 0h2m2 0h1m1 0h1m3 0h1m2 0h1m-24 1h4m1 0h5m4 0h1m1 0h7m-15 1h2m2 0h2m1 0h2m3 0h2m2 0h1m-25 1h7m1 0h2m1 0h1m1 0h4m1 0h1m1 0h2m1 0h2m-25 1h1m5 0h1m1 0h1m2 0h2m3 0h1m3 0h3m1 0h1m-25 1h1m1 0h3m1 0h1m2 0h2m1 0h2m2 0h6m1 0h2m-25 1h1m1 0h3m1 0h1m1 0h1m3 0h1m6 0h4m-23 1h1m1 0h3m1 0h1m4 0h2m4 0h1m1 0h2m1 0h1m1 0h1m-25 1h1m5 0h1m1 0h1m2 0h2m2 0h2m4 0h1m-22 1h7m2 0h1m3 0h1m1 0h2m2 0h1m3 0h2"/></svg>
